<svg width="204" height="25" viewBox="0 0 204 25" fill="none" xmlns="http://www.w3.org/2000/svg">
<path fill-rule="evenodd" clip-rule="evenodd" d="M43.6512 23.3034C43.6512 23.8102 43.3959 24.0637 42.8852 24.0637H33.8883C33.671 24.0637 33.4944 24.0003 33.3586 23.8736C33.2228 23.7469 33.1549 23.5678 33.1549 23.3364C33.1549 23.1381 33.201 22.9783 33.2934 22.8571C33.3858 22.7359 33.5297 22.6367 33.7253 22.5595L34.4262 22.3447C34.6 22.2896 34.7358 22.1849 34.8336 22.0306C34.9314 21.8764 34.9803 21.656 34.9803 21.3695V11.8157C34.9803 11.6615 34.9423 11.532 34.8662 11.4273C34.7902 11.3226 34.6489 11.2262 34.4425 11.1381L33.4971 10.824C33.2472 10.7028 33.0679 10.5733 32.9593 10.4356C32.8506 10.2978 32.7963 10.1298 32.7963 9.93145C32.7963 9.7331 32.8642 9.57057 33 9.44385L33.0534 9.3993C33.1835 9.30228 33.3532 9.25377 33.5623 9.25377H34.9925L34.9813 9.15717C34.9508 8.96399 34.8744 8.77856 34.7521 8.60087C34.5891 8.36396 34.4044 8.09674 34.198 7.79922C33.9915 7.5017 33.8068 7.14633 33.6438 6.7331C33.4808 6.31988 33.3993 5.81024 33.3993 5.20418C33.3993 3.76065 33.8883 2.60638 34.8662 1.74137C35.8441 0.876355 37.235 0.443848 39.0387 0.443848C40.2013 0.443848 41.1657 0.631175 41.9317 1.00583C42.6977 1.38049 43.2709 1.87911 43.6512 2.5017C44.0315 3.12429 44.2217 3.80473 44.2217 4.54302C44.2217 5.41354 43.9962 6.06644 43.5453 6.5017C43.0943 6.93696 42.5157 7.15459 41.8095 7.15459C41.0271 7.15459 40.3969 6.90115 39.9188 6.39426C39.4407 5.88737 39.2017 5.2152 39.2017 4.37773V2.90666C39.2017 2.52098 39.1256 2.23724 38.9735 2.05542C38.8214 1.8736 38.5877 1.78269 38.2726 1.78269C37.8706 1.78269 37.5664 1.92043 37.3599 2.19591C37.1535 2.4714 37.0502 2.86809 37.0502 3.386C37.0502 3.91492 37.1725 4.41079 37.417 4.8736C37.6614 5.33641 37.963 5.76892 38.3215 6.17112C38.6801 6.57332 39.0387 6.959 39.3973 7.32815C39.7558 7.69729 40.0573 8.06093 40.3018 8.41905L40.3715 8.52641C40.5035 8.74096 40.5915 8.95451 40.6355 9.16707L40.6504 9.25377H43.0645C43.3144 9.25377 43.5072 9.30611 43.6431 9.41079C43.7789 9.51547 43.8468 9.67801 43.8468 9.89839C43.8468 10.229 43.7055 10.4989 43.423 10.7083C43.1405 10.9177 42.695 11.0224 42.0865 11.0224H40.9293V21.3199C40.9293 21.6284 40.9755 21.8653 41.0679 22.0306C41.1602 22.1959 41.3096 22.2951 41.5161 22.3281L42.9178 22.543C43.1677 22.5761 43.3524 22.656 43.4719 22.7827C43.5914 22.9094 43.6512 23.083 43.6512 23.3034ZM11.5591 23.6835C10.5812 24.1573 9.44029 24.3943 8.13639 24.3943C6.75644 24.3943 5.52045 24.1022 4.42844 23.5182C3.33643 22.9342 2.47532 22.0885 1.8451 20.981C1.21489 19.8736 0.89978 18.5265 0.89978 16.9397C0.89978 15.408 1.22847 14.0389 1.88585 12.8323C2.54323 11.6257 3.45867 10.6725 4.63218 9.97277C5.80568 9.27305 7.17477 8.92319 8.73944 8.92319C10.0759 8.92319 11.2033 9.12153 12.1214 9.51823C13.0396 9.91492 13.7404 10.4521 14.2239 11.1298C14.7075 11.8075 14.9492 12.5651 14.9492 13.4025C14.9492 14.2841 14.6966 14.9755 14.1913 15.4769C13.6861 15.9783 12.9988 16.229 12.1296 16.229C11.2386 16.229 10.5622 15.9728 10.1004 15.4604C9.63859 14.948 9.40769 14.2455 9.40769 13.3529V12.2951C9.40769 11.7551 9.3099 11.3474 9.11431 11.0719C8.91873 10.7965 8.64165 10.6587 8.28308 10.6587C7.92451 10.6587 7.60125 10.8047 7.31331 11.0967C7.02537 11.3888 6.80262 11.8268 6.64506 12.4108C6.48751 12.9948 6.40873 13.7166 6.40873 14.5761C6.40873 15.8102 6.59073 16.8461 6.95474 17.6835C7.31874 18.521 7.81585 19.1491 8.44607 19.5678C9.07628 19.9865 9.79342 20.1959 10.5975 20.1959C11.4016 20.1959 12.0752 20.0775 12.6185 19.8405C13.1618 19.6036 13.5801 19.2042 13.8735 18.6422C14.0365 18.4879 14.1642 18.3888 14.2565 18.3447C14.3489 18.3006 14.4385 18.2786 14.5255 18.2786C14.6341 18.2896 14.7238 18.3419 14.7944 18.4356C14.865 18.5292 14.8949 18.6753 14.884 18.8736C14.7971 19.9535 14.4657 20.9067 13.8898 21.7331C13.3139 22.5595 12.537 23.2097 11.5591 23.6835ZM28.1267 23.3529C26.9043 24.0251 25.4836 24.3612 23.8646 24.3612C22.2891 24.3612 20.9064 24.0334 19.7166 23.3777C18.5268 22.7221 17.6005 21.8157 16.9377 20.6587C16.2749 19.5017 15.9435 18.1629 15.9435 16.6422C15.9435 15.1876 16.2912 13.8791 16.9866 12.7166C17.682 11.554 18.6436 10.6312 19.8714 9.94798C21.0993 9.26478 22.5118 8.92319 24.1091 8.92319C25.6955 8.92319 27.0809 9.25377 28.2653 9.91492C29.4496 10.5761 30.3732 11.4907 31.036 12.6587C31.6988 13.8268 32.0303 15.1766 32.0303 16.7083C32.0303 18.1629 31.6853 19.4659 30.9953 20.6174C30.3053 21.7689 29.3491 22.6808 28.1267 23.3529ZM25.1033 22.6422C24.7665 22.7083 24.4378 22.5595 24.1172 22.1959C23.7967 21.8323 23.4925 21.2207 23.2045 20.3612C22.9166 19.5017 22.6422 18.3722 22.3814 16.9728C22.1315 15.5733 21.9903 14.4218 21.9577 13.5182C21.9251 12.6146 21.9903 11.9315 22.1533 11.4686C22.3162 11.0058 22.5662 10.7359 22.903 10.6587C23.2398 10.5926 23.5685 10.7414 23.8891 11.105C24.2096 11.4686 24.5166 12.0802 24.8099 12.9397C25.1033 13.7992 25.3804 14.9287 25.6412 16.3281C25.9019 17.7276 26.0459 18.8819 26.0731 19.791C26.1003 20.7 26.0296 21.386 25.8612 21.8488C25.6928 22.3116 25.4402 22.5761 25.1033 22.6422ZM54.2616 24.0637C54.7723 24.0637 55.0277 23.8102 55.0277 23.3034C55.0277 23.083 54.9679 22.9094 54.8484 22.7827C54.7289 22.656 54.5442 22.5761 54.2942 22.543L52.8926 22.3281C52.6861 22.2951 52.5367 22.1959 52.4443 22.0306C52.352 21.8653 52.3058 21.6284 52.3058 21.3199V11.0224H53.463C54.0715 11.0224 54.517 10.9177 54.7995 10.7083C55.082 10.4989 55.2233 10.229 55.2233 9.89839C55.2233 9.67801 55.1554 9.51547 55.0195 9.41079C54.8837 9.30611 54.6908 9.25377 54.4409 9.25377H52.0269L52.012 9.16707C51.968 8.95451 51.88 8.74096 51.748 8.52641L51.6783 8.41905C51.4338 8.06093 51.1323 7.69729 50.7737 7.32815C50.4152 6.959 50.0566 6.57332 49.698 6.17112C49.3394 5.76892 49.0379 5.33641 48.7934 4.8736C48.549 4.41079 48.4267 3.91492 48.4267 3.386C48.4267 2.86809 48.5299 2.4714 48.7364 2.19591C48.9428 1.92043 49.2471 1.78269 49.6491 1.78269C49.9642 1.78269 50.1978 1.8736 50.35 2.05542C50.5021 2.23724 50.5781 2.52098 50.5781 2.90666V4.37773C50.5781 5.2152 50.8172 5.88737 51.2953 6.39426C51.7734 6.90115 52.4036 7.15459 53.1859 7.15459C53.8922 7.15459 54.4708 6.93696 54.9217 6.5017C55.3727 6.06644 55.5981 5.41354 55.5981 4.54302C55.5981 3.80473 55.408 3.12429 55.0277 2.5017C54.6474 1.87911 54.0742 1.38049 53.3082 1.00583C52.5421 0.631175 51.5778 0.443848 50.4152 0.443848C48.6114 0.443848 47.2206 0.876355 46.2427 1.74137C45.2648 2.60638 44.7758 3.76065 44.7758 5.20418C44.7758 5.81024 44.8573 6.31988 45.0203 6.7331C45.1833 7.14633 45.368 7.5017 45.5745 7.79922C45.7809 8.09674 45.9656 8.36396 46.1286 8.60087C46.2508 8.77856 46.3272 8.96399 46.3578 9.15717L46.369 9.25377H44.9388C44.7296 9.25377 44.56 9.30228 44.4299 9.3993L44.3765 9.44385C44.2407 9.57057 44.1728 9.7331 44.1728 9.93145C44.1728 10.1298 44.2271 10.2978 44.3358 10.4356C44.4444 10.5733 44.6237 10.7028 44.8736 10.824L45.8189 11.1381C46.0254 11.2262 46.1666 11.3226 46.2427 11.4273C46.3188 11.532 46.3568 11.6615 46.3568 11.8157V21.3695C46.3568 21.656 46.3079 21.8764 46.2101 22.0306C46.1123 22.1849 45.9765 22.2896 45.8026 22.3447L45.1018 22.5595C44.9062 22.6367 44.7622 22.7359 44.6699 22.8571C44.5775 22.9783 44.5313 23.1381 44.5313 23.3364C44.5313 23.5678 44.5992 23.7469 44.7351 23.8736C44.8709 24.0003 45.0475 24.0637 45.2648 24.0637H54.2616ZM67.0235 23.5843C65.9695 24.1243 64.7526 24.3943 63.3726 24.3943C61.8514 24.3943 60.5149 24.0775 59.3631 23.4438C58.2114 22.8102 57.3122 21.9232 56.6657 20.7827C56.0192 19.6422 55.6959 18.3226 55.6959 16.824C55.6959 15.2483 56.0083 13.8681 56.6331 12.6835C57.2579 11.4989 58.1625 10.5761 59.3468 9.91492C60.5312 9.25377 61.9546 8.92319 63.6171 8.92319C65.0296 8.92319 66.2466 9.20142 67.268 9.7579C68.2894 10.3144 69.0744 11.0692 69.6231 12.0224C70.1719 12.9755 70.4462 14.0361 70.4462 15.2042C70.4462 15.7111 70.3104 16.1105 70.0388 16.4025L69.974 16.4673C69.7062 16.7161 69.3367 16.8405 68.8653 16.8405H61.4145L61.4305 16.9168C61.6282 17.8243 61.9659 18.5509 62.4436 19.0967C63.2585 20.0279 64.3451 20.4934 65.7033 20.4934C66.5726 20.4934 67.3413 20.2951 68.0096 19.8984C68.6778 19.5017 69.126 18.9507 69.3542 18.2455C69.4846 18.1022 69.6014 18.0058 69.7046 17.9562C69.8079 17.9067 69.8975 17.8819 69.9736 17.8819C70.0822 17.8819 70.1746 17.9259 70.2506 18.0141C70.3267 18.1022 70.3647 18.251 70.3647 18.4604C70.3647 19.5403 70.0714 20.5292 69.4846 21.4273C68.8979 22.3254 68.0775 23.0444 67.0235 23.5843ZM61.2444 15.5156C61.2289 15.262 61.2212 14.9984 61.2212 14.7248C61.2212 13.689 61.2972 12.8736 61.4494 12.2786C61.6015 11.6835 61.7971 11.262 62.0361 11.0141C62.2752 10.7662 62.5414 10.6422 62.8347 10.6422C63.215 10.6422 63.5709 10.9673 63.9023 11.6174C64.2337 12.2675 64.3994 13.3474 64.3994 14.8571C64.3994 15.3199 64.193 15.5513 63.7801 15.5513H61.2465L61.2444 15.5156ZM82.605 23.5843C81.5511 24.1243 80.3341 24.3943 78.9541 24.3943C77.4329 24.3943 76.0964 24.0775 74.9447 23.4438C73.7929 22.8102 72.8937 21.9232 72.2472 20.7827C71.6007 19.6422 71.2775 18.3226 71.2775 16.824C71.2775 15.2483 71.5899 13.8681 72.2146 12.6835C72.8394 11.4989 73.744 10.5761 74.9284 9.91492C76.1127 9.25377 77.5361 8.92319 79.1986 8.92319C80.6112 8.92319 81.8281 9.20142 82.8495 9.7579C83.8709 10.3144 84.656 11.0692 85.2047 12.0224C85.7534 12.9755 86.0278 14.0361 86.0278 15.2042C86.0278 15.7111 85.8919 16.1105 85.6203 16.4025L85.5555 16.4673C85.2878 16.7161 84.9182 16.8405 84.4468 16.8405H76.996L77.012 16.9168C77.2097 17.8243 77.5474 18.5509 78.0251 19.0967C78.84 20.0279 79.9266 20.4934 81.2848 20.4934C82.1541 20.4934 82.9229 20.2951 83.5911 19.8984C84.2594 19.5017 84.7076 18.9507 84.9357 18.2455C85.0661 18.1022 85.1829 18.0058 85.2862 17.9562C85.3894 17.9067 85.479 17.8819 85.5551 17.8819C85.6638 17.8819 85.7561 17.9259 85.8322 18.0141C85.9082 18.1022 85.9463 18.251 85.9463 18.4604C85.9463 19.5403 85.6529 20.5292 85.0661 21.4273C84.4794 22.3254 83.659 23.0444 82.605 23.5843ZM76.826 15.5156C76.8105 15.262 76.8027 14.9984 76.8027 14.7248C76.8027 13.689 76.8788 12.8736 77.0309 12.2786C77.183 11.6835 77.3786 11.262 77.6176 11.0141C77.8567 10.7662 78.1229 10.6422 78.4163 10.6422C78.7966 10.6422 79.1524 10.9673 79.4838 11.6174C79.8152 12.2675 79.981 13.3474 79.981 14.8571C79.981 15.3199 79.7745 15.5513 79.3616 15.5513H76.8281L76.826 15.5156ZM96.4997 23.8571C96.3638 23.9948 96.1655 24.0637 95.9048 24.0637H87.7554C87.5164 24.0637 87.3289 23.9976 87.1931 23.8653C87.0573 23.7331 86.9894 23.5513 86.9894 23.3199C86.9894 23.1436 87.0301 22.9976 87.1116 22.8819C87.1931 22.7662 87.3045 22.6587 87.4457 22.5596L87.8206 22.4108C87.9619 22.3447 88.0597 22.24 88.114 22.0967C88.1683 21.9535 88.1955 21.7166 88.1955 21.386V12.9893C88.1955 12.7248 88.1656 12.5348 88.1058 12.4191C88.0461 12.3034 87.9456 12.2124 87.8043 12.1463L87.3805 12.0967C87.2284 12.0086 87.1171 11.9149 87.0464 11.8157C86.9758 11.7166 86.9405 11.5899 86.9405 11.4356C86.9405 11.2593 86.9948 11.1022 87.1035 10.9645C87.2121 10.8268 87.3968 10.7083 87.6576 10.6091L92.2864 9.27029C92.5581 9.1601 92.7863 9.08297 92.971 9.03889C93.1557 8.99481 93.3133 8.97277 93.4437 8.97277C93.6284 8.97277 93.7669 9.03889 93.8593 9.17112L93.8889 9.21907C93.9651 9.35729 94.0177 9.57822 94.0467 9.88186L94.1708 12.4503L94.1991 12.3555C94.2541 12.1766 94.3147 12.0049 94.3808 11.8405C94.7774 10.8543 95.3017 10.1215 95.9537 9.64219C96.6056 9.16286 97.3173 8.92319 98.0888 8.92319C99.0232 8.92319 99.7404 9.23724 100.24 9.86534C100.74 10.4934 100.99 11.4466 100.99 12.7248C100.99 13.9921 100.729 14.9232 100.208 15.5182C99.6861 16.1133 99.0124 16.4108 98.1866 16.4108C97.3825 16.4108 96.7876 16.2069 96.4019 15.7992C96.0161 15.3915 95.8124 14.813 95.7907 14.0637L95.7744 13.4025C95.7635 13.1491 95.7146 12.9507 95.6277 12.8075C95.5407 12.6642 95.3995 12.5926 95.2039 12.5926C95.0083 12.5926 94.8372 12.6945 94.6905 12.8984C94.5438 13.1023 94.4324 13.4135 94.3564 13.8323C94.2803 14.251 94.2423 14.7854 94.2423 15.4356V21.2538C94.2423 21.5623 94.2912 21.8075 94.389 21.9893C94.4868 22.1711 94.6389 22.2841 94.8453 22.3281L96.0677 22.5761C96.2959 22.6091 96.4589 22.6945 96.5567 22.8323C96.6545 22.97 96.7034 23.1326 96.7034 23.3199C96.7034 23.5403 96.6355 23.7193 96.4997 23.8571ZM109.53 24.3612C111.149 24.3612 112.57 24.0251 113.793 23.3529C115.015 22.6808 115.971 21.7689 116.661 20.6174C117.351 19.4659 117.696 18.1629 117.696 16.7083C117.696 15.1766 117.365 13.8268 116.702 12.6587C116.039 11.4907 115.115 10.5761 113.931 9.91492C112.747 9.25377 111.361 8.92319 109.775 8.92319C108.178 8.92319 106.765 9.26478 105.537 9.94798C104.309 10.6312 103.348 11.554 102.652 12.7166C101.957 13.8791 101.609 15.1876 101.609 16.6422C101.609 18.1629 101.941 19.5017 102.604 20.6587C103.266 21.8157 104.193 22.7221 105.382 23.3777C106.572 24.0334 107.955 24.3612 109.53 24.3612ZM109.783 22.1959C110.104 22.5595 110.432 22.7083 110.769 22.6422C111.106 22.5761 111.359 22.3116 111.527 21.8488C111.695 21.386 111.766 20.7 111.739 19.791C111.712 18.8819 111.568 17.7276 111.307 16.3281C111.046 14.9287 110.769 13.7992 110.476 12.9397C110.182 12.0802 109.875 11.4686 109.555 11.105C109.234 10.7414 108.906 10.5926 108.569 10.6587C108.232 10.7359 107.982 11.0058 107.819 11.4686C107.656 11.9315 107.591 12.6146 107.624 13.5182C107.656 14.4218 107.797 15.5733 108.047 16.9728C108.308 18.3722 108.582 19.5017 108.87 20.3612C109.158 21.2207 109.463 21.8323 109.783 22.1959ZM130.621 24.3943C131.534 24.3943 132.283 24.2262 132.87 23.8901C133.457 23.554 133.894 23.1546 134.182 22.6918C134.47 22.229 134.614 21.8047 134.614 21.4191C134.614 21.2538 134.579 21.116 134.508 21.0058C134.438 20.8956 134.342 20.8405 134.223 20.8405C134.169 20.8405 134.12 20.8516 134.076 20.8736C134.033 20.8956 133.995 20.9287 133.962 20.9728C133.908 21.1711 133.824 21.3089 133.71 21.386C133.595 21.4631 133.473 21.5017 133.343 21.5017C133.158 21.5017 133.02 21.4383 132.927 21.3116C132.835 21.1849 132.789 21.0168 132.789 20.8075V13.5017C132.789 12.0472 132.297 10.9204 131.314 10.1215C130.33 9.32264 128.79 8.92319 126.693 8.92319C125.063 8.92319 123.702 9.12704 122.61 9.53476C121.518 9.94247 120.698 10.4631 120.149 11.0967C119.6 11.7303 119.326 12.3777 119.326 13.0389C119.326 13.7441 119.53 14.2813 119.937 14.6505C120.345 15.0196 120.934 15.2042 121.706 15.2042C122.651 15.2042 123.395 14.948 123.938 14.4356C124.482 13.9232 124.753 13.2593 124.753 12.4438V11.1876C124.753 10.8791 124.848 10.6394 125.039 10.4686C125.229 10.2978 125.465 10.2124 125.748 10.2124C126.052 10.2124 126.294 10.3254 126.473 10.5513C126.652 10.7772 126.742 11.083 126.742 11.4686L126.741 16.2868L126.655 16.268C126.393 16.2173 126.089 16.1884 125.744 16.1812L125.568 16.1794C123.232 16.1794 121.491 16.5761 120.345 17.3695C119.198 18.1629 118.625 19.2703 118.625 20.6918C118.625 21.7717 119.019 22.6587 119.807 23.3529C120.595 24.0472 121.64 24.3943 122.944 24.3943C123.922 24.3943 124.835 24.1932 125.682 23.791C126.318 23.4893 126.835 23.0931 127.232 22.6024L127.254 22.5738L127.278 22.6477C127.404 23.005 127.633 23.3251 127.967 23.608L128.07 23.6918C128.673 24.1601 129.523 24.3943 130.621 24.3943ZM125.006 21.2786C125.272 21.6367 125.623 21.8157 126.057 21.8157L126.151 21.8125C126.336 21.7996 126.515 21.748 126.688 21.6576L126.741 21.6275V17.386L126.66 17.3612C126.476 17.3116 126.258 17.2868 126.008 17.2868C125.585 17.2868 125.245 17.4852 124.99 17.8819C124.734 18.2786 124.607 18.8626 124.607 19.6339C124.607 20.3722 124.74 20.9204 125.006 21.2786ZM142.111 24.4438C144.046 24.4438 145.529 23.9976 146.561 23.105C147.593 22.2124 148.109 20.9948 148.109 19.4521C148.109 18.5155 147.936 17.6945 147.588 16.9893C147.24 16.2841 146.632 15.6587 145.762 15.1133C144.893 14.5678 143.671 14.0527 142.095 13.5678C141.508 13.3805 141.055 13.1904 140.734 12.9976C140.414 12.8047 140.194 12.5981 140.074 12.3777C139.955 12.1573 139.895 11.9204 139.895 11.667C139.895 11.2923 140.031 10.9893 140.302 10.7579C140.574 10.5265 140.976 10.4108 141.508 10.4108C142.247 10.4108 142.945 10.6587 143.603 11.1546C144.26 11.6505 144.986 12.4989 145.779 13.7C145.985 13.9535 146.192 14.1381 146.398 14.2538C146.604 14.3695 146.8 14.4053 146.985 14.3612C147.213 14.2951 147.354 14.1436 147.409 13.9067C147.463 13.6697 147.452 13.3309 147.376 12.8901L146.952 9.84881C146.909 9.52925 146.827 9.30335 146.708 9.17112C146.588 9.03889 146.431 8.97277 146.235 8.97277C146.061 8.97277 145.844 9.03338 145.583 9.15459C145.322 9.2758 145.064 9.39977 144.809 9.52649C144.554 9.65321 144.361 9.71657 144.23 9.71657C144.111 9.71657 143.934 9.65046 143.701 9.51823C143.467 9.386 143.138 9.25377 142.715 9.12153C142.291 8.9893 141.742 8.92319 141.068 8.92319C139.949 8.92319 138.941 9.12704 138.045 9.53476C137.149 9.94247 136.442 10.5237 135.926 11.2786C135.41 12.0334 135.152 12.9342 135.152 13.981C135.152 14.9067 135.345 15.7166 135.731 16.4108C136.116 17.105 136.706 17.7 137.499 18.1959C138.292 18.6918 139.292 19.094 140.498 19.4025C141.28 19.6119 141.881 19.824 142.299 20.0389C142.717 20.2538 143.005 20.4879 143.163 20.7414C143.32 20.9948 143.399 21.2758 143.399 21.5843C143.399 21.9921 143.263 22.3281 142.992 22.5926C142.72 22.8571 142.307 22.9893 141.753 22.9893C141.231 22.9893 140.734 22.8764 140.262 22.6505C139.789 22.4246 139.303 22.0361 138.803 21.4852C138.303 20.9342 137.743 20.1794 137.124 19.2207C136.939 18.9673 136.73 18.791 136.497 18.6918C136.263 18.5926 136.027 18.5981 135.788 18.7083C135.559 18.7965 135.413 18.9838 135.348 19.2703C135.282 19.5568 135.299 19.9094 135.396 20.3281L135.902 23.6174C135.978 23.948 136.086 24.1684 136.228 24.2786C136.369 24.3888 136.521 24.4438 136.684 24.4438C136.869 24.4438 137.094 24.3832 137.36 24.262L138.159 23.8984C138.425 23.7772 138.64 23.7166 138.803 23.7166C138.966 23.7166 139.18 23.7772 139.447 23.8984C139.713 24.0196 140.061 24.1408 140.49 24.262C140.919 24.3832 141.46 24.4438 142.111 24.4438ZM157.563 23.824C156.846 24.2042 155.998 24.3943 155.02 24.3943C153.368 24.3943 152.127 23.9921 151.296 23.1876C150.465 22.3832 150.049 21.116 150.049 19.386V11.9149C150.049 11.6835 150.027 11.5072 149.984 11.386C149.94 11.2648 149.832 11.1656 149.658 11.0885L148.892 10.8405C148.707 10.7524 148.588 10.6449 148.533 10.5182C148.479 10.3915 148.452 10.2345 148.452 10.0472C148.452 9.81575 148.533 9.62567 148.696 9.47691C148.859 9.32815 149.06 9.25377 149.299 9.25377H150.098C150.196 9.25377 150.299 9.2152 150.408 9.13806C150.516 9.06093 150.663 8.90666 150.848 8.67525L153.863 6.14633C154.08 5.88186 154.297 5.68076 154.515 5.54302C154.732 5.40528 154.949 5.33641 155.167 5.33641C155.417 5.33641 155.612 5.41354 155.753 5.56781L155.798 5.6225C155.91 5.77704 155.965 6.00124 155.965 6.29509L155.965 9.25377H159.372C159.611 9.25377 159.796 9.30611 159.926 9.41079C160.056 9.51547 160.122 9.67801 160.122 9.89839C160.122 10.2069 159.986 10.4714 159.714 10.6918L159.653 10.7373C159.38 10.9273 158.965 11.0224 158.41 11.0224H155.965L155.965 18.5596C155.965 19.386 156.104 19.9976 156.381 20.3943C156.658 20.791 157.063 20.9893 157.595 20.9893C157.823 20.9893 158.035 20.9397 158.231 20.8405C158.426 20.7414 158.603 20.6119 158.761 20.4521C158.918 20.2923 159.068 20.1133 159.209 19.9149C159.35 19.7166 159.486 19.5182 159.616 19.3199C159.725 19.2758 159.82 19.2951 159.902 19.3777C159.983 19.4604 160.018 19.6284 160.007 19.8819C159.931 20.7744 159.684 21.5595 159.266 22.2372C158.848 22.9149 158.28 23.4438 157.563 23.824ZM168.238 24.3943C169.618 24.3943 170.835 24.1243 171.889 23.5843C172.943 23.0444 173.764 22.3254 174.35 21.4273C174.937 20.5292 175.23 19.5403 175.23 18.4604C175.23 18.251 175.192 18.1022 175.116 18.0141C175.04 17.9259 174.948 17.8819 174.839 17.8819C174.763 17.8819 174.674 17.9067 174.57 17.9562C174.467 18.0058 174.35 18.1022 174.22 18.2455C173.992 18.9507 173.543 19.5017 172.875 19.8984C172.207 20.2951 171.438 20.4934 170.569 20.4934C169.211 20.4934 168.124 20.0279 167.309 19.0967C166.832 18.5509 166.494 17.8243 166.296 16.9168L166.28 16.8405H173.731C174.202 16.8405 174.572 16.7161 174.84 16.4673L174.904 16.4025C175.176 16.1105 175.312 15.7111 175.312 15.2042C175.312 14.0361 175.038 12.9755 174.489 12.0224C173.94 11.0692 173.155 10.3144 172.134 9.7579C171.112 9.20142 169.895 8.92319 168.483 8.92319C166.82 8.92319 165.397 9.25377 164.213 9.91492C163.028 10.5761 162.124 11.4989 161.499 12.6835C160.874 13.8681 160.562 15.2483 160.562 16.824C160.562 18.3226 160.885 19.6422 161.531 20.7827C162.178 21.9232 163.077 22.8102 164.229 23.4438C165.381 24.0775 166.717 24.3943 168.238 24.3943ZM166.087 14.7248C166.087 14.9984 166.095 15.262 166.11 15.5156L166.112 15.5513H168.646C169.059 15.5513 169.265 15.3199 169.265 14.8571C169.265 13.3474 169.099 12.2675 168.768 11.6174C168.437 10.9673 168.081 10.6422 167.7 10.6422C167.407 10.6422 167.141 10.7662 166.902 11.0141C166.663 11.262 166.467 11.6835 166.315 12.2786C166.163 12.8736 166.087 13.689 166.087 14.7248ZM185.189 24.0637C185.45 24.0637 185.648 23.9948 185.784 23.8571C185.92 23.7193 185.988 23.5403 185.988 23.3199C185.988 23.1326 185.939 22.97 185.841 22.8323C185.743 22.6945 185.58 22.6091 185.352 22.5761L184.129 22.3281C183.923 22.2841 183.771 22.1711 183.673 21.9893C183.575 21.8075 183.526 21.5623 183.526 21.2538V15.4356C183.526 14.7854 183.564 14.251 183.641 13.8323C183.717 13.4135 183.828 13.1023 183.975 12.8984C184.121 12.6945 184.292 12.5926 184.488 12.5926C184.684 12.5926 184.825 12.6642 184.912 12.8075C184.999 12.9507 185.048 13.1491 185.059 13.4025L185.075 14.0637C185.097 14.813 185.3 15.3915 185.686 15.7992C186.072 16.2069 186.667 16.4108 187.471 16.4108C188.297 16.4108 188.97 16.1133 189.492 15.5182C190.013 14.9232 190.274 13.9921 190.274 12.7248C190.274 11.4466 190.024 10.4934 189.524 9.86534C189.025 9.23724 188.307 8.92319 187.373 8.92319C186.601 8.92319 185.89 9.16286 185.238 9.64219C184.586 10.1215 184.062 10.8543 183.665 11.8405C183.599 12.0049 183.538 12.1766 183.483 12.3555L183.455 12.4507L183.331 9.88186C183.302 9.57822 183.249 9.35729 183.173 9.21907L183.143 9.17112C183.051 9.03889 182.913 8.97277 182.728 8.97277C182.597 8.97277 182.44 8.99481 182.255 9.03889C182.07 9.08297 181.842 9.1601 181.571 9.27029L176.942 10.6091C176.681 10.7083 176.496 10.8268 176.388 10.9645C176.279 11.1022 176.225 11.2593 176.225 11.4356C176.225 11.5899 176.26 11.7166 176.331 11.8157C176.401 11.9149 176.513 12.0086 176.665 12.0967L177.088 12.1463C177.23 12.2124 177.33 12.3034 177.39 12.4191C177.45 12.5348 177.48 12.7248 177.48 12.9893V21.386C177.48 21.7166 177.452 21.9535 177.398 22.0967C177.344 22.24 177.246 22.3447 177.105 22.4108L176.73 22.5596C176.589 22.6587 176.477 22.7662 176.396 22.8819C176.314 22.9976 176.274 23.1436 176.274 23.3199C176.274 23.5513 176.341 23.7331 176.477 23.8653C176.613 23.9976 176.801 24.0637 177.04 24.0637H185.189ZM202.351 23.105C201.319 23.9976 199.836 24.4438 197.902 24.4438C197.25 24.4438 196.709 24.3832 196.28 24.262C195.851 24.1408 195.503 24.0196 195.237 23.8984C194.971 23.7772 194.756 23.7166 194.593 23.7166C194.43 23.7166 194.216 23.7772 193.949 23.8984L193.151 24.262C192.885 24.3832 192.659 24.4438 192.474 24.4438C192.311 24.4438 192.159 24.3888 192.018 24.2786C191.877 24.1684 191.768 23.948 191.692 23.6174L191.187 20.3281C191.089 19.9094 191.073 19.5568 191.138 19.2703C191.203 18.9838 191.35 18.7965 191.578 18.7083C191.817 18.5981 192.053 18.5926 192.287 18.6918C192.521 18.791 192.73 18.9673 192.914 19.2207C193.534 20.1794 194.093 20.9342 194.593 21.4852C195.093 22.0361 195.579 22.4246 196.052 22.6505C196.525 22.8764 197.022 22.9893 197.543 22.9893C198.097 22.9893 198.51 22.8571 198.782 22.5926C199.054 22.3281 199.189 21.9921 199.189 21.5843C199.189 21.2758 199.111 20.9948 198.953 20.7414C198.796 20.4879 198.508 20.2538 198.089 20.0389C197.671 19.824 197.071 19.6119 196.288 19.4025C195.082 19.094 194.083 18.6918 193.289 18.1959C192.496 17.7 191.907 17.105 191.521 16.4108C191.135 15.7166 190.942 14.9067 190.942 13.981C190.942 12.9342 191.2 12.0334 191.717 11.2786C192.233 10.5237 192.939 9.94247 193.835 9.53476C194.732 9.12704 195.74 8.92319 196.859 8.92319C197.532 8.92319 198.081 8.9893 198.505 9.12153C198.929 9.25377 199.257 9.386 199.491 9.51823C199.725 9.65046 199.901 9.71657 200.021 9.71657C200.151 9.71657 200.344 9.65321 200.599 9.52649C200.855 9.39977 201.113 9.2758 201.373 9.15459C201.634 9.03338 201.852 8.97277 202.025 8.97277C202.221 8.97277 202.379 9.03889 202.498 9.17112C202.618 9.30335 202.699 9.52925 202.743 9.84881L203.166 12.8901C203.242 13.3309 203.253 13.6697 203.199 13.9067C203.145 14.1436 203.003 14.2951 202.775 14.3612C202.59 14.4053 202.395 14.3695 202.188 14.2538C201.982 14.1381 201.776 13.9535 201.569 13.7C200.776 12.4989 200.051 11.6505 199.393 11.1546C198.736 10.6587 198.038 10.4108 197.299 10.4108C196.766 10.4108 196.364 10.5265 196.093 10.7579C195.821 10.9893 195.685 11.2923 195.685 11.667C195.685 11.9204 195.745 12.1573 195.865 12.3777C195.984 12.5981 196.204 12.8047 196.525 12.9976C196.845 13.1904 197.299 13.3805 197.886 13.5678C199.461 14.0527 200.684 14.5678 201.553 15.1133C202.422 15.6587 203.031 16.2841 203.378 16.9893C203.726 17.6945 203.9 18.5155 203.9 19.4521C203.9 20.9948 203.384 22.2124 202.351 23.105Z" fill="white"/>
</svg>
